<svg width="10" height="18" viewBox="0 0 10 18" fill="none" xmlns="http://www.w3.org/2000/svg">
<path d="M9.70616 1.49998V16.5C9.70627 16.6484 9.66235 16.7935 9.57995 16.917C9.49754 17.0404 9.38037 17.1366 9.24325 17.1934C9.10613 17.2503 8.95524 17.2651 8.80968 17.2361C8.66411 17.2071 8.53042 17.1356 8.42553 17.0306L0.925531 9.53061C0.855799 9.46095 0.80048 9.37823 0.762737 9.28719C0.724994 9.19614 0.705566 9.09854 0.705566 8.99998C0.705566 8.90142 0.724994 8.80382 0.762737 8.71278C0.80048 8.62173 0.855799 8.53901 0.925531 8.46936L8.42553 0.969355C8.53042 0.864347 8.66411 0.792821 8.80968 0.763833C8.95524 0.734846 9.10613 0.749699 9.24325 0.806513C9.38037 0.863328 9.49754 0.959548 9.57995 1.08299C9.66235 1.20644 9.70627 1.35156 9.70616 1.49998Z" fill="black"/>
</svg>
