<svg width="10" height="18" viewBox="0 0 10 18" fill="none" xmlns="http://www.w3.org/2000/svg">
<path d="M8.98668 9.53061L1.48668 17.0306C1.38179 17.1356 1.2481 17.2071 1.10254 17.2361C0.956972 17.2651 0.806079 17.2503 0.668962 17.1934C0.531845 17.1366 0.414668 17.0404 0.332265 16.917C0.249862 16.7935 0.205938 16.6484 0.206055 16.5V1.49998C0.205938 1.35156 0.249862 1.20644 0.332265 1.08299C0.414668 0.959548 0.531845 0.863328 0.668962 0.806513C0.806079 0.749699 0.956972 0.734846 1.10254 0.763833C1.2481 0.792821 1.38179 0.864347 1.48668 0.969355L8.98668 8.46936C9.05641 8.53901 9.11173 8.62173 9.14948 8.71278C9.18722 8.80382 9.20664 8.90142 9.20664 8.99998C9.20664 9.09854 9.18722 9.19614 9.14948 9.28719C9.11173 9.37823 9.05641 9.46095 8.98668 9.53061Z" fill="black"/>
</svg>
