<svg width="298" height="298" viewBox="0 0 298 298" fill="none" xmlns="http://www.w3.org/2000/svg">
<g clip-path="url(#clip0_77_6212)">
<path d="M139.776 146.492L139.932 146.017L140.089 145.543C140.053 145.531 140.018 145.519 139.983 145.508C93.442 130.176 63.2321 112.193 45.8839 96.3744C37.201 88.4571 31.7603 81.1005 29.0935 74.9097C26.4213 68.7066 26.5689 63.7733 28.8654 60.5717C31.1598 57.373 35.7398 55.7084 42.3852 56.3662C49.0186 57.0228 57.605 59.9911 67.7209 65.9107C87.9474 77.7468 114.189 101.324 142.989 141.484L143.395 141.193L143.801 140.901C115.002 100.742 100.978 68.1709 96.1169 45.0232C93.6859 33.4464 93.5526 24.2537 94.987 17.6563C96.4246 11.0445 99.4059 7.14529 103.115 5.92431C106.823 4.70404 111.493 6.08181 116.49 10.5733C121.477 15.0554 126.702 22.5711 131.452 33.3848C140.949 55.0064 148.5 89.7087 148.5 139.349L149 139.349L149.5 139.349C149.5 89.7087 157.052 55.0064 166.549 33.3848C171.3 22.5711 176.525 15.0555 181.512 10.5733C186.51 6.08184 191.181 4.704 194.889 5.92431C198.598 7.14532 201.58 11.0445 203.018 17.6563C204.452 24.2537 204.319 33.4463 201.888 45.0232C197.026 68.1709 183.001 100.742 154.199 140.901L154.605 141.193L155.011 141.484C183.814 101.324 210.057 77.7468 230.284 65.9107C240.4 59.9911 248.986 57.0228 255.619 56.3662C262.265 55.7084 266.844 57.373 269.139 60.5717C271.435 63.7732 271.582 68.7065 268.909 74.9097C266.242 81.1004 260.801 88.4571 252.118 96.3744C234.755 112.205 204.512 130.203 157.911 145.543L158.068 146.017L158.224 146.492C204.825 131.153 239.734 127.705 262.964 130.174C274.582 131.408 283.251 134.12 288.999 137.539C294.757 140.964 297.5 145.041 297.5 149C297.5 152.959 294.757 157.036 288.999 160.462C283.251 163.881 274.582 166.593 262.964 167.828C239.734 170.298 204.825 166.852 158.224 151.516L158.068 151.99L157.911 152.465C204.512 167.802 234.755 185.798 252.118 201.628C260.801 209.544 266.242 216.9 268.909 223.091C271.582 229.294 271.435 234.227 269.139 237.428C266.844 240.627 262.265 242.292 255.619 241.634C248.986 240.978 240.4 238.01 230.284 232.091C210.057 220.256 183.814 196.681 155.011 156.524L154.605 156.815L154.199 157.107C183.001 197.264 197.026 229.832 201.888 252.979C204.319 264.555 204.452 273.747 203.018 280.344C201.58 286.956 198.598 290.855 194.889 292.076C191.181 293.296 186.51 291.918 181.512 287.427C176.525 282.945 171.3 275.43 166.549 264.617C157.052 242.997 149.5 208.297 149.5 158.659L149 158.659L148.5 158.659C148.5 208.297 140.949 242.997 131.452 264.617C126.702 275.43 121.477 282.945 116.49 287.427C111.493 291.918 106.823 293.296 103.115 292.076C99.4059 290.855 96.4246 286.956 94.987 280.344C93.5526 273.747 93.6859 264.555 96.1169 252.979C100.978 229.832 115.002 197.264 143.801 157.106L143.395 156.815L142.989 156.524C114.189 196.681 87.9474 220.256 67.7209 232.091C57.605 238.01 49.0186 240.978 42.3852 241.634C35.7399 242.292 31.1598 240.627 28.8654 237.428C26.5689 234.227 26.4213 229.294 29.0935 223.091C31.7603 216.9 37.201 209.544 45.8839 201.628C63.2453 185.798 93.4878 167.802 140.089 152.465L139.932 151.99L139.776 151.516C93.175 166.852 58.2659 170.296 35.036 167.824C23.4181 166.588 14.7494 163.874 9.00147 160.454C3.24338 157.027 0.500002 152.948 0.500001 148.988C0.500001 145.028 3.24334 140.95 9.0014 137.525C14.7493 134.105 23.418 131.394 35.0359 130.16C58.2658 127.693 93.1749 131.145 139.776 146.492Z" fill="#FFFDEA"/>
<path d="M139.776 146.492L139.932 146.017L140.089 145.543C140.053 145.531 140.018 145.519 139.983 145.508C93.442 130.176 63.2321 112.193 45.8839 96.3744C37.201 88.4571 31.7603 81.1005 29.0935 74.9097C26.4213 68.7066 26.5689 63.7733 28.8654 60.5717C31.1598 57.373 35.7398 55.7084 42.3852 56.3662C49.0186 57.0228 57.605 59.9911 67.7209 65.9107C87.9474 77.7468 114.189 101.324 142.989 141.484L143.395 141.193L143.801 140.901C115.002 100.742 100.978 68.1709 96.1169 45.0232C93.6859 33.4464 93.5526 24.2537 94.987 17.6563C96.4246 11.0445 99.4059 7.14529 103.115 5.92431C106.823 4.70404 111.493 6.08181 116.49 10.5733C121.477 15.0554 126.702 22.5711 131.452 33.3848C140.949 55.0064 148.5 89.7087 148.5 139.349L149 139.349L149.5 139.349C149.5 89.7087 157.052 55.0064 166.549 33.3848C171.3 22.5711 176.525 15.0555 181.512 10.5733C186.51 6.08184 191.181 4.704 194.889 5.92431C198.598 7.14532 201.58 11.0445 203.018 17.6563C204.452 24.2537 204.319 33.4463 201.888 45.0232C197.026 68.1709 183.001 100.742 154.199 140.901L154.605 141.193L155.011 141.484C183.814 101.324 210.057 77.7468 230.284 65.9107C240.4 59.9911 248.986 57.0228 255.619 56.3662C262.265 55.7084 266.844 57.373 269.139 60.5717C271.435 63.7732 271.582 68.7065 268.909 74.9097C266.242 81.1004 260.801 88.4571 252.118 96.3744C234.755 112.205 204.512 130.203 157.911 145.543L158.068 146.017L158.224 146.492C204.825 131.153 239.734 127.705 262.964 130.174C274.582 131.408 283.251 134.12 288.999 137.539C294.757 140.964 297.5 145.041 297.5 149C297.5 152.959 294.757 157.036 288.999 160.462C283.251 163.881 274.582 166.593 262.964 167.828C239.734 170.298 204.825 166.852 158.224 151.516L158.068 151.99L157.911 152.465C204.512 167.802 234.755 185.798 252.118 201.628C260.801 209.544 266.242 216.9 268.909 223.091C271.582 229.294 271.435 234.227 269.139 237.428C266.844 240.627 262.265 242.292 255.619 241.634C248.986 240.978 240.4 238.01 230.284 232.091C210.057 220.256 183.814 196.681 155.011 156.524L154.605 156.815L154.199 157.107C183.001 197.264 197.026 229.832 201.888 252.979C204.319 264.555 204.452 273.747 203.018 280.344C201.58 286.956 198.598 290.855 194.889 292.076C191.181 293.296 186.51 291.918 181.512 287.427C176.525 282.945 171.3 275.43 166.549 264.617C157.052 242.997 149.5 208.297 149.5 158.659L149 158.659L148.5 158.659C148.5 208.297 140.949 242.997 131.452 264.617C126.702 275.43 121.477 282.945 116.49 287.427C111.493 291.918 106.823 293.296 103.115 292.076C99.4059 290.855 96.4246 286.956 94.987 280.344C93.5526 273.747 93.6859 264.555 96.1169 252.979C100.978 229.832 115.002 197.264 143.801 157.106L143.395 156.815L142.989 156.524C114.189 196.681 87.9474 220.256 67.7209 232.091C57.605 238.01 49.0186 240.978 42.3852 241.634C35.7399 242.292 31.1598 240.627 28.8654 237.428C26.5689 234.227 26.4213 229.294 29.0935 223.091C31.7603 216.9 37.201 209.544 45.8839 201.628C63.2453 185.798 93.4878 167.802 140.089 152.465L139.932 151.99L139.776 151.516C93.175 166.852 58.2659 170.296 35.036 167.824C23.4181 166.588 14.7494 163.874 9.00147 160.454C3.24338 157.027 0.500002 152.948 0.500001 148.988C0.500001 145.028 3.24334 140.95 9.0014 137.525C14.7493 134.105 23.418 131.394 35.0359 130.16C58.2658 127.693 93.1749 131.145 139.776 146.492Z" fill="url(#paint0_radial_77_6212)"/>
<path d="M139.776 146.492L139.932 146.017L140.089 145.543C140.053 145.531 140.018 145.519 139.983 145.508C93.442 130.176 63.2321 112.193 45.8839 96.3744C37.201 88.4571 31.7603 81.1005 29.0935 74.9097C26.4213 68.7066 26.5689 63.7733 28.8654 60.5717C31.1598 57.373 35.7398 55.7084 42.3852 56.3662C49.0186 57.0228 57.605 59.9911 67.7209 65.9107C87.9474 77.7468 114.189 101.324 142.989 141.484L143.395 141.193L143.801 140.901C115.002 100.742 100.978 68.1709 96.1169 45.0232C93.6859 33.4464 93.5526 24.2537 94.987 17.6563C96.4246 11.0445 99.4059 7.14529 103.115 5.92431C106.823 4.70404 111.493 6.08181 116.49 10.5733C121.477 15.0554 126.702 22.5711 131.452 33.3848C140.949 55.0064 148.5 89.7087 148.5 139.349L149 139.349L149.5 139.349C149.5 89.7087 157.052 55.0064 166.549 33.3848C171.3 22.5711 176.525 15.0555 181.512 10.5733C186.51 6.08184 191.181 4.704 194.889 5.92431C198.598 7.14532 201.58 11.0445 203.018 17.6563C204.452 24.2537 204.319 33.4463 201.888 45.0232C197.026 68.1709 183.001 100.742 154.199 140.901L154.605 141.193L155.011 141.484C183.814 101.324 210.057 77.7468 230.284 65.9107C240.4 59.9911 248.986 57.0228 255.619 56.3662C262.265 55.7084 266.844 57.373 269.139 60.5717C271.435 63.7732 271.582 68.7065 268.909 74.9097C266.242 81.1004 260.801 88.4571 252.118 96.3744C234.755 112.205 204.512 130.203 157.911 145.543L158.068 146.017L158.224 146.492C204.825 131.153 239.734 127.705 262.964 130.174C274.582 131.408 283.251 134.12 288.999 137.539C294.757 140.964 297.5 145.041 297.5 149C297.5 152.959 294.757 157.036 288.999 160.462C283.251 163.881 274.582 166.593 262.964 167.828C239.734 170.298 204.825 166.852 158.224 151.516L158.068 151.99L157.911 152.465C204.512 167.802 234.755 185.798 252.118 201.628C260.801 209.544 266.242 216.9 268.909 223.091C271.582 229.294 271.435 234.227 269.139 237.428C266.844 240.627 262.265 242.292 255.619 241.634C248.986 240.978 240.4 238.01 230.284 232.091C210.057 220.256 183.814 196.681 155.011 156.524L154.605 156.815L154.199 157.107C183.001 197.264 197.026 229.832 201.888 252.979C204.319 264.555 204.452 273.747 203.018 280.344C201.58 286.956 198.598 290.855 194.889 292.076C191.181 293.296 186.51 291.918 181.512 287.427C176.525 282.945 171.3 275.43 166.549 264.617C157.052 242.997 149.5 208.297 149.5 158.659L149 158.659L148.5 158.659C148.5 208.297 140.949 242.997 131.452 264.617C126.702 275.43 121.477 282.945 116.49 287.427C111.493 291.918 106.823 293.296 103.115 292.076C99.4059 290.855 96.4246 286.956 94.987 280.344C93.5526 273.747 93.6859 264.555 96.1169 252.979C100.978 229.832 115.002 197.264 143.801 157.106L143.395 156.815L142.989 156.524C114.189 196.681 87.9474 220.256 67.7209 232.091C57.605 238.01 49.0186 240.978 42.3852 241.634C35.7399 242.292 31.1598 240.627 28.8654 237.428C26.5689 234.227 26.4213 229.294 29.0935 223.091C31.7603 216.9 37.201 209.544 45.8839 201.628C63.2453 185.798 93.4878 167.802 140.089 152.465L139.932 151.99L139.776 151.516C93.175 166.852 58.2659 170.296 35.036 167.824C23.4181 166.588 14.7494 163.874 9.00147 160.454C3.24338 157.027 0.500002 152.948 0.500001 148.988C0.500001 145.028 3.24334 140.95 9.0014 137.525C14.7493 134.105 23.418 131.394 35.0359 130.16C58.2658 127.693 93.1749 131.145 139.776 146.492Z" fill="url(#paint1_radial_77_6212)"/>
<path d="M139.776 146.492L139.932 146.017L140.089 145.543C140.053 145.531 140.018 145.519 139.983 145.508C93.442 130.176 63.2321 112.193 45.8839 96.3744C37.201 88.4571 31.7603 81.1005 29.0935 74.9097C26.4213 68.7066 26.5689 63.7733 28.8654 60.5717C31.1598 57.373 35.7398 55.7084 42.3852 56.3662C49.0186 57.0228 57.605 59.9911 67.7209 65.9107C87.9474 77.7468 114.189 101.324 142.989 141.484L143.395 141.193L143.801 140.901C115.002 100.742 100.978 68.1709 96.1169 45.0232C93.6859 33.4464 93.5526 24.2537 94.987 17.6563C96.4246 11.0445 99.4059 7.14529 103.115 5.92431C106.823 4.70404 111.493 6.08181 116.49 10.5733C121.477 15.0554 126.702 22.5711 131.452 33.3848C140.949 55.0064 148.5 89.7087 148.5 139.349L149 139.349L149.5 139.349C149.5 89.7087 157.052 55.0064 166.549 33.3848C171.3 22.5711 176.525 15.0555 181.512 10.5733C186.51 6.08184 191.181 4.704 194.889 5.92431C198.598 7.14532 201.58 11.0445 203.018 17.6563C204.452 24.2537 204.319 33.4463 201.888 45.0232C197.026 68.1709 183.001 100.742 154.199 140.901L154.605 141.193L155.011 141.484C183.814 101.324 210.057 77.7468 230.284 65.9107C240.4 59.9911 248.986 57.0228 255.619 56.3662C262.265 55.7084 266.844 57.373 269.139 60.5717C271.435 63.7732 271.582 68.7065 268.909 74.9097C266.242 81.1004 260.801 88.4571 252.118 96.3744C234.755 112.205 204.512 130.203 157.911 145.543L158.068 146.017L158.224 146.492C204.825 131.153 239.734 127.705 262.964 130.174C274.582 131.408 283.251 134.12 288.999 137.539C294.757 140.964 297.5 145.041 297.5 149C297.5 152.959 294.757 157.036 288.999 160.462C283.251 163.881 274.582 166.593 262.964 167.828C239.734 170.298 204.825 166.852 158.224 151.516L158.068 151.99L157.911 152.465C204.512 167.802 234.755 185.798 252.118 201.628C260.801 209.544 266.242 216.9 268.909 223.091C271.582 229.294 271.435 234.227 269.139 237.428C266.844 240.627 262.265 242.292 255.619 241.634C248.986 240.978 240.4 238.01 230.284 232.091C210.057 220.256 183.814 196.681 155.011 156.524L154.605 156.815L154.199 157.107C183.001 197.264 197.026 229.832 201.888 252.979C204.319 264.555 204.452 273.747 203.018 280.344C201.58 286.956 198.598 290.855 194.889 292.076C191.181 293.296 186.51 291.918 181.512 287.427C176.525 282.945 171.3 275.43 166.549 264.617C157.052 242.997 149.5 208.297 149.5 158.659L149 158.659L148.5 158.659C148.5 208.297 140.949 242.997 131.452 264.617C126.702 275.43 121.477 282.945 116.49 287.427C111.493 291.918 106.823 293.296 103.115 292.076C99.4059 290.855 96.4246 286.956 94.987 280.344C93.5526 273.747 93.6859 264.555 96.1169 252.979C100.978 229.832 115.002 197.264 143.801 157.106L143.395 156.815L142.989 156.524C114.189 196.681 87.9474 220.256 67.7209 232.091C57.605 238.01 49.0186 240.978 42.3852 241.634C35.7399 242.292 31.1598 240.627 28.8654 237.428C26.5689 234.227 26.4213 229.294 29.0935 223.091C31.7603 216.9 37.201 209.544 45.8839 201.628C63.2453 185.798 93.4878 167.802 140.089 152.465L139.932 151.99L139.776 151.516C93.175 166.852 58.2659 170.296 35.036 167.824C23.4181 166.588 14.7494 163.874 9.00147 160.454C3.24338 157.027 0.500002 152.948 0.500001 148.988C0.500001 145.028 3.24334 140.95 9.0014 137.525C14.7493 134.105 23.418 131.394 35.0359 130.16C58.2658 127.693 93.1749 131.145 139.776 146.492Z" fill="url(#paint2_radial_77_6212)"/>
<path d="M139.776 146.492L139.932 146.017L140.089 145.543C140.053 145.531 140.018 145.519 139.983 145.508C93.442 130.176 63.2321 112.193 45.8839 96.3744C37.201 88.4571 31.7603 81.1005 29.0935 74.9097C26.4213 68.7066 26.5689 63.7733 28.8654 60.5717C31.1598 57.373 35.7398 55.7084 42.3852 56.3662C49.0186 57.0228 57.605 59.9911 67.7209 65.9107C87.9474 77.7468 114.189 101.324 142.989 141.484L143.395 141.193L143.801 140.901C115.002 100.742 100.978 68.1709 96.1169 45.0232C93.6859 33.4464 93.5526 24.2537 94.987 17.6563C96.4246 11.0445 99.4059 7.14529 103.115 5.92431C106.823 4.70404 111.493 6.08181 116.49 10.5733C121.477 15.0554 126.702 22.5711 131.452 33.3848C140.949 55.0064 148.5 89.7087 148.5 139.349L149 139.349L149.5 139.349C149.5 89.7087 157.052 55.0064 166.549 33.3848C171.3 22.5711 176.525 15.0555 181.512 10.5733C186.51 6.08184 191.181 4.704 194.889 5.92431C198.598 7.14532 201.58 11.0445 203.018 17.6563C204.452 24.2537 204.319 33.4463 201.888 45.0232C197.026 68.1709 183.001 100.742 154.199 140.901L154.605 141.193L155.011 141.484C183.814 101.324 210.057 77.7468 230.284 65.9107C240.4 59.9911 248.986 57.0228 255.619 56.3662C262.265 55.7084 266.844 57.373 269.139 60.5717C271.435 63.7732 271.582 68.7065 268.909 74.9097C266.242 81.1004 260.801 88.4571 252.118 96.3744C234.755 112.205 204.512 130.203 157.911 145.543L158.068 146.017L158.224 146.492C204.825 131.153 239.734 127.705 262.964 130.174C274.582 131.408 283.251 134.12 288.999 137.539C294.757 140.964 297.5 145.041 297.5 149C297.5 152.959 294.757 157.036 288.999 160.462C283.251 163.881 274.582 166.593 262.964 167.828C239.734 170.298 204.825 166.852 158.224 151.516L158.068 151.99L157.911 152.465C204.512 167.802 234.755 185.798 252.118 201.628C260.801 209.544 266.242 216.9 268.909 223.091C271.582 229.294 271.435 234.227 269.139 237.428C266.844 240.627 262.265 242.292 255.619 241.634C248.986 240.978 240.4 238.01 230.284 232.091C210.057 220.256 183.814 196.681 155.011 156.524L154.605 156.815L154.199 157.107C183.001 197.264 197.026 229.832 201.888 252.979C204.319 264.555 204.452 273.747 203.018 280.344C201.58 286.956 198.598 290.855 194.889 292.076C191.181 293.296 186.51 291.918 181.512 287.427C176.525 282.945 171.3 275.43 166.549 264.617C157.052 242.997 149.5 208.297 149.5 158.659L149 158.659L148.5 158.659C148.5 208.297 140.949 242.997 131.452 264.617C126.702 275.43 121.477 282.945 116.49 287.427C111.493 291.918 106.823 293.296 103.115 292.076C99.4059 290.855 96.4246 286.956 94.987 280.344C93.5526 273.747 93.6859 264.555 96.1169 252.979C100.978 229.832 115.002 197.264 143.801 157.106L143.395 156.815L142.989 156.524C114.189 196.681 87.9474 220.256 67.7209 232.091C57.605 238.01 49.0186 240.978 42.3852 241.634C35.7399 242.292 31.1598 240.627 28.8654 237.428C26.5689 234.227 26.4213 229.294 29.0935 223.091C31.7603 216.9 37.201 209.544 45.8839 201.628C63.2453 185.798 93.4878 167.802 140.089 152.465L139.932 151.99L139.776 151.516C93.175 166.852 58.2659 170.296 35.036 167.824C23.4181 166.588 14.7494 163.874 9.00147 160.454C3.24338 157.027 0.500002 152.948 0.500001 148.988C0.500001 145.028 3.24334 140.95 9.0014 137.525C14.7493 134.105 23.418 131.394 35.0359 130.16C58.2658 127.693 93.1749 131.145 139.776 146.492Z" fill="url(#paint3_radial_77_6212)"/>
<path d="M139.776 146.492L139.932 146.017L140.089 145.543C140.053 145.531 140.018 145.519 139.983 145.508C93.442 130.176 63.2321 112.193 45.8839 96.3744C37.201 88.4571 31.7603 81.1005 29.0935 74.9097C26.4213 68.7066 26.5689 63.7733 28.8654 60.5717C31.1598 57.373 35.7398 55.7084 42.3852 56.3662C49.0186 57.0228 57.605 59.9911 67.7209 65.9107C87.9474 77.7468 114.189 101.324 142.989 141.484L143.395 141.193L143.801 140.901C115.002 100.742 100.978 68.1709 96.1169 45.0232C93.6859 33.4464 93.5526 24.2537 94.987 17.6563C96.4246 11.0445 99.4059 7.14529 103.115 5.92431C106.823 4.70404 111.493 6.08181 116.49 10.5733C121.477 15.0554 126.702 22.5711 131.452 33.3848C140.949 55.0064 148.5 89.7087 148.5 139.349L149 139.349L149.5 139.349C149.5 89.7087 157.052 55.0064 166.549 33.3848C171.3 22.5711 176.525 15.0555 181.512 10.5733C186.51 6.08184 191.181 4.704 194.889 5.92431C198.598 7.14532 201.58 11.0445 203.018 17.6563C204.452 24.2537 204.319 33.4463 201.888 45.0232C197.026 68.1709 183.001 100.742 154.199 140.901L154.605 141.193L155.011 141.484C183.814 101.324 210.057 77.7468 230.284 65.9107C240.4 59.9911 248.986 57.0228 255.619 56.3662C262.265 55.7084 266.844 57.373 269.139 60.5717C271.435 63.7732 271.582 68.7065 268.909 74.9097C266.242 81.1004 260.801 88.4571 252.118 96.3744C234.755 112.205 204.512 130.203 157.911 145.543L158.068 146.017L158.224 146.492C204.825 131.153 239.734 127.705 262.964 130.174C274.582 131.408 283.251 134.12 288.999 137.539C294.757 140.964 297.5 145.041 297.5 149C297.5 152.959 294.757 157.036 288.999 160.462C283.251 163.881 274.582 166.593 262.964 167.828C239.734 170.298 204.825 166.852 158.224 151.516L158.068 151.99L157.911 152.465C204.512 167.802 234.755 185.798 252.118 201.628C260.801 209.544 266.242 216.9 268.909 223.091C271.582 229.294 271.435 234.227 269.139 237.428C266.844 240.627 262.265 242.292 255.619 241.634C248.986 240.978 240.4 238.01 230.284 232.091C210.057 220.256 183.814 196.681 155.011 156.524L154.605 156.815L154.199 157.107C183.001 197.264 197.026 229.832 201.888 252.979C204.319 264.555 204.452 273.747 203.018 280.344C201.58 286.956 198.598 290.855 194.889 292.076C191.181 293.296 186.51 291.918 181.512 287.427C176.525 282.945 171.3 275.43 166.549 264.617C157.052 242.997 149.5 208.297 149.5 158.659L149 158.659L148.5 158.659C148.5 208.297 140.949 242.997 131.452 264.617C126.702 275.43 121.477 282.945 116.49 287.427C111.493 291.918 106.823 293.296 103.115 292.076C99.4059 290.855 96.4246 286.956 94.987 280.344C93.5526 273.747 93.6859 264.555 96.1169 252.979C100.978 229.832 115.002 197.264 143.801 157.106L143.395 156.815L142.989 156.524C114.189 196.681 87.9474 220.256 67.7209 232.091C57.605 238.01 49.0186 240.978 42.3852 241.634C35.7399 242.292 31.1598 240.627 28.8654 237.428C26.5689 234.227 26.4213 229.294 29.0935 223.091C31.7603 216.9 37.201 209.544 45.8839 201.628C63.2453 185.798 93.4878 167.802 140.089 152.465L139.932 151.99L139.776 151.516C93.175 166.852 58.2659 170.296 35.036 167.824C23.4181 166.588 14.7494 163.874 9.00147 160.454C3.24338 157.027 0.500002 152.948 0.500001 148.988C0.500001 145.028 3.24334 140.95 9.0014 137.525C14.7493 134.105 23.418 131.394 35.0359 130.16C58.2658 127.693 93.1749 131.145 139.776 146.492Z" stroke="black"/>
</g>
<defs>
<radialGradient id="paint0_radial_77_6212" cx="0" cy="0" r="1" gradientUnits="userSpaceOnUse" gradientTransform="translate(149 276.44) rotate(-85.6703) scale(118.418 122.484)">
<stop stop-color="#00C5DF"/>
<stop offset="1" stop-color="#0CE548" stop-opacity="0"/>
</radialGradient>
<radialGradient id="paint1_radial_77_6212" cx="0" cy="0" r="1" gradientUnits="userSpaceOnUse" gradientTransform="translate(19.37 143.96) rotate(-16.1193) scale(241.177 234.353)">
<stop stop-color="#FF58E4"/>
<stop offset="0.382844" stop-color="#FF7776"/>
<stop offset="1" stop-color="#FFE500" stop-opacity="0"/>
</radialGradient>
<radialGradient id="paint2_radial_77_6212" cx="0" cy="0" r="1" gradientUnits="userSpaceOnUse" gradientTransform="translate(254.045 149) rotate(-177.03) scale(111.154 107.445)">
<stop offset="0.355309" stop-color="#00F0FF"/>
<stop offset="1" stop-color="white" stop-opacity="0"/>
</radialGradient>
<radialGradient id="paint3_radial_77_6212" cx="0" cy="0" r="1" gradientUnits="userSpaceOnUse" gradientTransform="translate(212.325 99.32) rotate(147.876) scale(138.11 136.141)">
<stop stop-color="#FFE500"/>
<stop offset="1" stop-color="white" stop-opacity="0"/>
</radialGradient>
<clipPath id="clip0_77_6212">
<rect width="298" height="298" fill="white"/>
</clipPath>
</defs>
</svg>
